HIERARCHY
ROOT Hips
{
	OFFSET 0.000000 0.000000 0.000000
	CHANNELS 6 Xposition Yposition Zposition Xrotation Yrotation Zrotation
	JOINT LeftUpLeg_virtual
	{
		OFFSET 0.000000 0.000000 0.000000
		CHANNELS 3 Xrotation Yrotation Zrotation
		JOINT LeftUpLeg
		{
			OFFSET 11.394100 -6.187798 -0.413800
			CHANNELS 3 Xrotation Yrotation Zrotation
			JOINT LeftLeg
			{
				OFFSET 0.430247 -32.302673 3.732800
				CHANNELS 3 Xrotation Yrotation Zrotation
				JOINT LeftFoot
				{
					OFFSET -0.430247 -48.264931 -6.423300
					CHANNELS 3 Xrotation Yrotation Zrotation
					JOINT LeftToeBase
					{
						OFFSET 4.230900 -16.068199 23.438400
						CHANNELS 3 Xrotation Yrotation Zrotation
						JOINT LeftToe_End
						{
							OFFSET 4.510700 0.695400 19.974600
							CHANNELS 3 Xrotation Yrotation Zrotation
							End Site
							{
								OFFSET 0 0 0
							}
						}
					}
				}
			}
		}
	}
	JOINT RightUpLeg_virtual
	{
		OFFSET 0.000000 0.000000 0.000000
		CHANNELS 3 Xrotation Yrotation Zrotation
		JOINT RightUpLeg
		{
			OFFSET -11.333700 -6.187798 -0.413800
			CHANNELS 3 Xrotation Yrotation Zrotation
			JOINT RightLeg
			{
				OFFSET -0.430392 -32.302628 3.733000
				CHANNELS 3 Xrotation Yrotation Zrotation
				JOINT RightFoot
				{
					OFFSET 0.430392 -48.264973 -6.423500
					CHANNELS 3 Xrotation Yrotation Zrotation
					JOINT RightToeBase
					{
						OFFSET -4.230900 -16.068199 23.438400
						CHANNELS 3 Xrotation Yrotation Zrotation
						JOINT RightToe_End
						{
							OFFSET -4.510700 0.695400 19.974600
							CHANNELS 3 Xrotation Yrotation Zrotation
							End Site
							{
								OFFSET 0 0 0
							}
						}
					}
				}
			}
		}
	}
	JOINT Spine_virtual
	{
		OFFSET 0.000000 0.000000 0.000000
		CHANNELS 3 Xrotation Yrotation Zrotation
		JOINT Spine
		{
			OFFSET -0.002400 12.777504 0.315300
			CHANNELS 3 Xrotation Yrotation Zrotation
			JOINT Spine1
			{
				OFFSET -0.002067 5.816869 0.032633
				CHANNELS 3 Xrotation Yrotation Zrotation
				JOINT Spine1_split
				{
					OFFSET -0.002067 5.816869 0.032633
					CHANNELS 3 Xrotation Yrotation Zrotation
					JOINT Spine2
					{
						OFFSET -0.002067 5.816869 0.032633
						CHANNELS 3 Xrotation Yrotation Zrotation
						JOINT Neck_virtual
						{
							OFFSET 0.000000 0.000000 0.000000
							CHANNELS 3 Xrotation Yrotation Zrotation
							JOINT Neck
							{
								OFFSET -0.003700 21.199493 -0.826900
								CHANNELS 3 Xrotation Yrotation Zrotation
								JOINT Head
								{
									OFFSET 0.000000 20.442200 4.834800
									CHANNELS 3 Xrotation Yrotation Zrotation
									JOINT HeadTop_End
									{
										OFFSET 0.000000 34.668396 4.968400
										CHANNELS 3 Xrotation Yrotation Zrotation
										End Site
										{
											OFFSET 0 0 0
										}
									}
								}
							}
						}
						JOINT LeftShoulder_virtual
						{
							OFFSET 0.000000 0.000000 0.000000
							CHANNELS 3 Xrotation Yrotation Zrotation
							JOINT LeftShoulder
							{
								OFFSET 3.288150 8.794197 -1.372250
								CHANNELS 3 Xrotation Yrotation Zrotation
								JOINT LeftShoulder_split
								{
									OFFSET 3.288150 8.794197 -1.372250
									CHANNELS 3 Xrotation Yrotation Zrotation
									JOINT LeftArm
									{
										OFFSET 11.953299 -2.279007 -0.146200
										CHANNELS 3 Xrotation Yrotation Zrotation
										JOINT LeftForeArm
										{
											OFFSET 18.448900 0.000000 0.000000
											CHANNELS 3 Xrotation Yrotation Zrotation
											JOINT LeftHand
											{
												OFFSET 29.527798 0.000000 0.000000
												CHANNELS 3 Xrotation Yrotation Zrotation
												End Site
												{
													OFFSET 0 0 0
												}
											}
										}
									}
								}
							}
						}
						JOINT RightShoulder_virtual
						{
							OFFSET 0.000000 0.000000 0.000000
							CHANNELS 3 Xrotation Yrotation Zrotation
							JOINT RightShoulder
							{
								OFFSET -3.249400 8.794197 -1.372250
								CHANNELS 3 Xrotation Yrotation Zrotation
								JOINT RightShoulder_split
								{
									OFFSET -3.249400 8.794197 -1.372250
									CHANNELS 3 Xrotation Yrotation Zrotation
									JOINT RightArm
									{
										OFFSET -11.953299 -2.279007 -0.146200
										CHANNELS 3 Xrotation Yrotation Zrotation
										JOINT RightForeArm
										{
											OFFSET -18.448900 0.000000 0.000000
											CHANNELS 3 Xrotation Yrotation Zrotation
											JOINT RightHand
											{
												OFFSET -29.527802 0.000000 0.000000
												CHANNELS 3 Xrotation Yrotation Zrotation
												End Site
												{
													OFFSET 0 0 0
												}
											}
										}
									}
								}
							}
						}
					}
				}
			}
		}
	}
}
MOTION
Frames: 10
Frame Time: 0.03333333
-2.040697 98.728859 1.098843 0.000000 0.000000 0.000000 -48.852310 -82.788245 -46.783872 -13.791082 15.518728 8.737988 25.238556 0.276225 2.548590 -4.271579 2.334835 -5.733519 -3.880084 -0.637189 -0.905362 0.000000 0.000000 0.000000 -35.686253 -82.339037 -34.678315 -11.710245 -23.679919 -5.698568 23.345438 7.059258 -11.283130 -3.098531 -0.149137 7.618390 1.746098 -0.349772 -0.191689 0.000000 0.000000 0.000000 -49.194677 -81.690381 -47.982786 3.959733 0.433614 1.943722 3.670503 0.254093 1.925129 0.563366 5.851834 -0.555065 0.000000 0.000000 0.000000 3.774497 -0.277476 1.552845 -6.487782 6.727657 -3.247941 5.439016 36.074047 -3.091125 0.000000 0.000000 0.000000 5.315978 0.288953 1.631666 0.791471 5.093940 0.286197 -0.881626 0.428174 -0.601584 8.628930 -80.430286 -54.473573 -1.973043 -23.577577 -0.418536 0.000000 0.000000 0.000000 6.431483 0.845009 1.121897 1.181519 3.590003 7.497056 2.931839 3.839760 -0.465608 13.608291 27.956360 59.333150 1.193700 30.890593 0.072645 0.000000 0.000000 0.000000 
-1.900572 98.675514 1.117466 0.000000 0.000000 0.000000 -49.582560 -82.840537 -47.490322 -13.666000 15.393844 8.687020 25.612762 -0.094556 2.655730 -4.484426 2.209081 -5.838893 -3.753840 -0.587595 -0.992257 0.000000 0.000000 0.000000 -34.667779 -82.091750 -33.668482 -11.747340 -23.586315 -5.697938 23.289929 6.937061 -11.272058 -2.866856 -0.311799 7.393115 1.848153 -0.382093 -0.091495 0.000000 0.000000 0.000000 -49.124138 -81.608808 -47.992372 3.961161 0.293575 1.990026 3.635745 0.233367 1.935697 0.723959 4.621993 -0.257120 0.000000 0.000000 0.000000 3.743225 -0.240767 1.586970 -6.652999 6.648358 -3.259805 5.386258 35.876019 -3.224713 0.000000 0.000000 0.000000 5.312877 0.284192 1.685520 0.759346 4.922591 0.221285 -0.875301 0.484307 -0.333184 11.477173 -80.503874 -51.829135 -2.244693 -23.839022 -0.771213 0.000000 0.000000 0.000000 6.453062 0.876142 1.209337 1.281882 3.375544 7.370404 2.994023 3.826489 -0.620803 13.778213 28.018896 59.095978 1.228068 31.668848 -0.094705 0.000000 0.000000 0.000000 
-1.723214 98.645950 1.059929 0.000000 0.000000 0.000000 -50.590976 -82.855973 -48.506381 -13.635523 15.452907 8.634339 26.144675 -0.528580 2.882418 -4.782241 1.911668 -6.111506 -3.630202 -0.481439 -1.026972 0.000000 0.000000 0.000000 -34.831362 -81.757405 -33.793655 -11.665684 -23.471199 -5.674901 23.444390 6.969149 -11.301002 -2.595862 -0.323796 7.671388 1.494697 -0.459637 -0.303151 0.000000 0.000000 0.000000 -49.216137 -81.553032 -48.128057 4.074216 0.008206 2.115800 3.611787 0.140545 1.938337 0.748255 3.637109 -0.099987 0.000000 0.000000 0.000000 3.800819 -0.281535 1.665433 -6.916071 6.690474 -3.398876 5.242954 35.943351 -3.438409 0.000000 0.000000 0.000000 5.408865 0.206023 1.753943 0.762679 4.831456 0.164489 -0.817038 0.953661 -0.437569 16.619998 -80.498704 -47.121267 -2.356753 -24.440275 -1.092163 0.000000 0.000000 0.000000 6.447241 0.802475 1.321156 1.404632 3.104622 7.115690 3.088426 4.092711 -0.593985 13.913760 27.887406 59.171752 1.244564 33.203138 -0.249354 0.000000 0.000000 0.000000 
-1.500727 98.616829 0.943283 0.000000 0.000000 0.000000 -51.212174 -82.797315 -49.119804 -13.698836 15.828735 8.559581 26.546304 -0.848271 3.161927 -5.201356 1.530930 -6.396734 -3.502831 -0.352357 -1.002493 0.000000 0.000000 0.000000 -35.740198 -81.484676 -34.625825 -11.516059 -23.218132 -5.668200 23.730283 7.176435 -11.355235 -2.464515 -0.143866 8.315401 1.061224 -0.534143 -0.726033 0.000000 0.000000 0.000000 -49.757730 -81.573496 -48.626067 4.257026 -0.352564 2.239201 3.598715 0.048091 1.930635 0.778461 2.972059 -0.172338 0.000000 0.000000 0.000000 3.925099 -0.354639 1.756424 -7.174007 6.816785 -3.653900 4.994463 36.201908 -3.700696 0.000000 0.000000 0.000000 5.549853 0.115440 1.829020 0.786896 4.829665 0.118687 -0.786842 1.538401 -0.744530 22.682264 -80.428947 -41.551627 -2.250727 -24.957569 -1.306482 0.000000 0.000000 0.000000 6.420813 0.689054 1.428439 1.509535 2.896241 6.839813 3.262262 4.570816 -0.498971 13.866160 27.589000 59.534033 1.232803 34.883627 -0.373506 0.000000 0.000000 0.000000 
-1.253032 98.620544 0.792725 0.000000 0.000000 0.000000 -51.841399 -82.811304 -49.685866 -13.774668 16.444777 8.432073 26.634176 -1.027179 3.465615 -5.627461 1.126387 -6.706484 -3.476669 -0.205835 -0.880085 0.000000 0.000000 0.000000 -36.714958 -81.409476 -35.479325 -11.190405 -22.764889 -5.647884 23.863484 7.518863 -11.447418 -2.684273 0.117044 8.852194 1.061608 -0.557241 -1.187149 0.000000 0.000000 0.000000 -51.434852 -81.762193 -50.149018 4.447142 -0.692272 2.238370 3.606037 0.033913 1.919643 0.997825 2.704818 -0.294736 0.000000 0.000000 0.000000 4.086392 -0.381227 1.828990 -7.308113 7.016778 -3.929670 4.637612 36.644959 -4.016648 0.000000 0.000000 0.000000 5.676851 0.092518 1.894118 0.815195 4.889664 0.036969 -0.888014 1.828661 -1.155928 27.519529 -80.289024 -37.025704 -1.853565 -25.245866 -1.329580 0.000000 0.000000 0.000000 6.379332 0.612396 1.510778 1.578741 2.785198 6.716447 3.349749 5.108870 -0.460480 13.468307 27.109272 60.130936 1.191719 36.258490 -0.451641 0.000000 0.000000 0.000000 
-1.011499 98.664528 0.636738 0.000000 0.000000 0.000000 -52.099269 -82.989435 -49.822801 -13.914687 17.125827 8.276096 26.436210 -1.070641 3.805752 -5.888356 0.748172 -6.956517 -3.522990 -0.063429 -0.590190 0.000000 0.000000 0.000000 -37.079605 -81.603685 -35.693107 -10.921083 -22.077340 -5.655160 23.725912 7.881577 -11.554264 -3.105274 0.291541 9.017708 1.397928 -0.505823 -1.551419 0.000000 0.000000 0.000000 -54.509254 -82.072236 -52.957882 4.574744 -0.923967 2.040856 3.639158 0.162663 1.899687 1.119977 2.935080 -0.258313 0.000000 0.000000 0.000000 4.256981 -0.294985 1.847385 -7.236888 7.268144 -4.188041 4.132630 37.139393 -4.367815 0.000000 0.000000 0.000000 5.730177 0.199188 1.928834 0.831768 4.945713 -0.123506 -1.025441 1.700959 -1.494831 29.549089 -80.052645 -34.951751 -1.187953 -25.349960 -1.137488 0.000000 0.000000 0.000000 6.325320 0.660154 1.541681 1.611005 2.812712 6.819585 3.407743 5.519717 -0.359706 12.664165 26.458138 60.828510 1.101879 37.146018 -0.466279 0.000000 0.000000 0.000000 
-0.735544 98.730049 0.340595 0.000000 0.000000 0.000000 -52.269115 -83.308391 -49.814205 -14.139841 17.667792 8.123611 26.112570 -0.993648 4.206957 -5.656192 0.463682 -7.360161 -3.552430 0.072101 -0.219497 0.000000 0.000000 0.000000 -36.957283 -82.140524 -35.426204 -11.022392 -21.153594 -5.761143 23.494459 8.236381 -11.677767 -3.227628 0.370372 8.919060 1.541588 -0.379724 -1.793408 0.000000 0.000000 0.000000 -58.777637 -82.458627 -56.855707 4.638352 -1.004986 1.623644 3.733193 0.430392 1.851759 1.433954 3.328667 -0.216598 0.000000 0.000000 0.000000 4.458269 -0.082608 1.792879 -6.979660 7.491744 -4.347859 3.470930 37.610324 -4.727650 0.000000 0.000000 0.000000 5.718066 0.432784 1.899715 0.841932 4.978556 -0.392669 -1.066052 1.169426 -1.515771 27.687063 -79.549437 -36.295728 -0.251319 -25.608843 -0.715471 0.000000 0.000000 0.000000 6.318167 0.856542 1.513417 1.597563 2.843987 7.146195 3.587209 5.858117 -0.299791 11.479864 25.691294 61.523783 1.016821 37.768754 -0.467472 0.000000 0.000000 0.000000 
-0.328678 98.783714 -0.117149 0.000000 0.000000 0.000000 -53.289908 -83.846992 -50.650385 -14.752941 17.900980 8.047626 25.929828 -0.782112 4.678619 -4.781916 0.412479 -8.184734 -3.596907 0.214658 0.117902 0.000000 0.000000 0.000000 -37.034997 -82.975570 -35.398992 -11.730668 -20.054149 -5.909957 23.564689 8.576992 -11.818022 -2.798701 0.368475 8.735310 1.237800 -0.219604 -1.888821 0.000000 0.000000 0.000000 -63.866558 -82.938195 -61.551629 4.634031 -0.907733 1.040011 3.942450 0.782078 1.757638 1.641126 3.600523 -0.256637 0.000000 0.000000 0.000000 4.765512 0.236789 1.654736 -6.613524 7.671655 -4.348309 2.652578 38.098655 -5.088562 0.000000 0.000000 0.000000 5.738222 0.761389 1.777451 0.836639 4.991442 -0.690968 -1.010123 0.529855 -1.329515 22.786841 -78.383879 -40.284585 0.801913 -26.599439 -0.137881 0.000000 0.000000 0.000000 6.397593 1.156768 1.413477 1.557918 2.769563 7.651254 3.698452 6.063532 -0.206093 10.153289 24.943318 62.108379 0.981409 38.709342 -0.456694 0.000000 0.000000 0.000000 
0.219182 98.698364 -0.750809 0.000000 0.000000 0.000000 -55.707580 -84.599310 -52.966341 -16.100335 17.820199 8.151421 26.189128 -0.166445 5.229920 -3.430933 0.663705 -9.261294 -3.791641 0.334253 0.444027 0.000000 0.000000 0.000000 -37.640585 -83.988323 -36.015646 -13.137435 -18.949241 -5.968389 24.251913 8.780342 -11.928406 -2.216425 0.308043 8.363449 0.767138 -0.063306 -1.805121 0.000000 0.000000 0.000000 -69.342485 -83.460308 -66.700151 4.590836 -0.685658 0.433591 4.341220 1.120146 1.599701 1.665018 3.459202 -0.276525 0.000000 0.000000 0.000000 5.244770 0.566920 1.431622 -6.246931 7.768934 -4.214070 1.631573 38.561595 -5.372061 0.000000 0.000000 0.000000 5.921479 1.089841 1.554015 0.820418 5.026405 -0.857373 -0.775848 0.002180 -1.302694 17.576235 -76.511178 -44.332098 1.762701 -28.750496 0.441843 0.000000 0.000000 0.000000 6.646972 1.470075 1.229896 1.502287 2.534763 8.188536 3.652416 6.080596 -0.024429 9.115526 24.326012 62.357032 0.996827 40.606916 -0.437793 0.000000 0.000000 0.000000 
0.925769 98.301689 -1.413864 0.000000 0.000000 0.000000 -61.842233 -85.526918 -59.149233 -18.250124 17.346949 8.421516 27.191753 0.955999 5.917003 -1.770059 1.165735 -10.484797 -4.511649 0.406811 0.881376 0.000000 0.000000 0.000000 -39.451050 -85.121308 -37.975367 -15.216984 -17.964386 -5.862564 25.765487 8.787834 -11.996309 -2.212361 0.308854 7.518390 0.665564 0.081470 -1.578658 0.000000 0.000000 0.000000 -76.250224 -84.050109 -73.405887 4.541347 -0.442139 -0.032845 5.004433 1.317450 1.375088 1.525920 3.004115 -0.205988 0.000000 0.000000 0.000000 5.971697 0.775448 1.152559 -5.936912 7.782420 -4.012228 0.405617 38.981075 -5.526285 0.000000 0.000000 0.000000 6.402928 1.295156 1.238597 0.780721 5.115652 -0.689243 -0.337768 -0.285866 -1.497072 14.407577 -74.046286 -46.406477 2.497975 -32.448934 0.906421 0.000000 0.000000 0.000000 7.176120 1.668278 0.973872 1.420683 2.114731 8.635187 3.552307 6.062868 0.179761 8.806674 23.932155 61.973564 1.060136 44.303240 -0.410498 0.000000 0.000000 0.000000 
